Patient4_TMGait_0pt8_01_right_44_GRF.mot
version=1
nRows=71
nColumns=19
inDegrees=no
endheader
time	F1x	F1y	F1z	M1x	M1y	M1z	F2x	F2y	F2z	M2x	M2y	M2z	EC1x	EC1y	EC1z	EC2x	EC2y	EC2z
49.46	0.77066	733.4421	47.3574	-268.9179	-59.1396	869.3142	0.50926	-2.9318	-3.3648	1.0745	1.4037	-7.9307	-0.0592	0.0182	-0.0073	-0.0462	0.0165	0.9585
49.4716	-2.4351	730.4554	48.523	-267.8043	-59.8677	859.8398	0.16044	-0.8618	-2.3693	1.1578	1.0895	-3.9135	-0.0592	0.0182	-0.0073	-0.0462	0.0165	0.9585
49.4831	-4.3193	727.3044	49.3116	-266.5698	-59.8112	849.7478	-0.14594	0.88329	-1.5048	1.2327	0.81231	-0.54829	-0.0592	0.0182	-0.0073	-0.0462	0.0165	0.9585
49.4947	-4.7564	724.3805	49.7654	-265.354	-59.06	839.7572	-0.40548	2.2252	-0.84207	1.3007	0.61105	2.0109	-0.0592	0.0182	-0.0073	-0.0462	0.0165	0.9585
49.5063	-3.855	721.9901	49.9721	-264.2763	-57.7833	830.3631	-0.59639	3.1577	-0.38597	1.3592	0.48775	3.7541	-0.0592	0.0182	-0.0073	-0.0462	0.0165	0.9585
49.5179	-1.8337	720.2729	50.08	-263.3996	-56.2038	821.8033	-0.75359	3.7405	-0.11854	1.4064	0.44854	4.8237	-0.0592	0.0182	-0.0073	-0.0462	0.0165	0.9585
49.5294	1.0448	719.2205	50.1689	-262.7331	-54.4703	814.0768	-0.87551	4.0396	0.0063285	1.4365	0.47358	5.3597	-0.0592	0.0182	-0.0073	-0.0462	0.0165	0.9585
49.541	4.5566	718.7154	50.343	-262.238	-52.7234	807.0362	-0.99833	4.1243	0.023443	1.4407	0.56077	5.5125	-0.0592	0.0182	-0.0073	-0.0462	0.0165	0.9585
49.5526	8.5441	718.6226	50.6547	-261.8635	-51.0353	800.5035	-1.1113	4.0164	-0.020895	1.4004	0.68335	5.3392	-0.0592	0.0182	-0.0073	-0.0462	0.0165	0.9585
49.5641	12.8783	718.8776	51.2071	-261.5737	-49.5145	794.373	-1.2443	3.7093	-0.10701	1.2899	0.84481	4.8847	-0.0592	0.0182	-0.0073	-0.0462	0.0165	0.9585
49.5757	17.4894	719.5665	52.0521	-261.3799	-48.2106	788.7253	-1.368	3.1359	-0.21107	1.0727	1.0236	4.0906	-0.0592	0.0182	-0.0073	-0.0462	0.0165	0.9585
49.5873	22.3175	720.9138	53.2637	-261.3437	-47.1941	783.8002	-1.4986	2.2255	-0.33515	0.71174	1.2227	2.8818	-0.0592	0.0182	-0.0073	-0.0462	0.0165	0.9585
49.5989	27.2961	723.2816	54.864	-261.5823	-46.4974	779.9964	-1.5812	0.87631	-0.45852	0.16893	1.3991	1.105	-0.0592	0.0182	-0.0073	-0.0462	0.0165	0.9585
49.6104	32.378	727.0617	56.851	-262.232	-46.1275	777.761	-1.5896	-0.95718	-0.56369	-0.57227	1.5132	-1.2895	-0.0592	0.0182	-0.0073	-0.0462	0.0165	0.9585
49.622	37.4947	732.5419	59.175	-263.4003	-46.0517	777.4273	-1.4263	-3.2485	-0.61811	-1.4948	1.4865	-4.279	-0.0592	0.0182	-0.0073	-0.0462	0.0165	0.9585
49.6336	42.5716	739.7408	61.7659	-265.1049	-46.2217	779.0309	-1.0067	-5.7666	-0.57031	-2.5045	1.2196	-7.573	-0.0592	0.0182	-0.0073	-0.0462	0.0165	0.9585
49.6451	47.5008	748.319	64.5005	-267.2389	-46.5541	782.2433	-0.18223	-8.0686	-0.36105	-3.4139	0.57837	-10.6178	-0.0592	0.0182	-0.0073	-0.0462	0.0165	0.9585
49.6567	52.1466	757.5905	67.222	-269.5747	-46.9459	786.3578	1.1663	-9.3454	0.09715	-3.8944	-0.59689	-12.3532	-0.0592	0.0182	-0.0073	-0.0462	0.0165	0.9585
49.6683	56.3968	766.6611	69.7627	-271.8146	-47.2798	790.4654	3.1759	-8.4061	0.89518	-3.4581	-2.4748	-11.2241	-0.0592	0.0182	-0.0073	-0.0462	0.0165	0.9585
49.6799	60.2285	774.561	71.99	-273.6359	-47.4483	793.5785	5.8744	-3.5735	2.13	-1.4308	-5.187	-5.0217	-0.0592	0.0182	-0.0073	-0.0462	0.0165	0.9585
49.6914	63.6933	780.3452	73.7689	-274.7296	-47.3139	794.741	9.1867	7.2178	3.8604	3.016	-8.7596	8.9578	-0.0592	0.0182	-0.0073	-0.0462	0.0165	0.9585
49.703	66.9703	783.1205	74.9551	-274.8054	-46.6913	793.0467	12.7543	26.2871	6.0769	10.7982	-13.0084	33.7834	-0.0592	0.0182	-0.0073	-0.0462	0.0165	0.9585
49.7146	70.2406	781.9405	75.3812	-273.56	-45.3674	787.5341	15.8975	55.7389	8.6128	22.7376	-17.4048	72.2495	-0.0592	0.0182	-0.0073	-0.0462	0.0165	0.9585
49.7261	73.6463	775.6817	74.8624	-270.6331	-43.1301	777.0773	17.4042	96.7867	11.084	39.2859	-20.9249	125.9995	-0.0592	0.0182	-0.0073	-0.0462	0.0165	0.9585
49.7377	77.1727	763.0074	73.1979	-265.5857	-39.81	760.3986	15.6316	148.7743	12.8113	60.1363	-22.0309	194.2413	-0.0592	0.0182	-0.0073	-0.0462	0.0165	0.9585
49.7493	80.6155	742.478	70.1898	-257.9401	-35.319	736.1644	9.2398	208.553	13.0329	83.9632	-19.1942	272.9442	-0.0592	0.0182	-0.0073	-0.0462	0.0165	0.9585
49.7609	83.5427	712.8108	65.7202	-247.2655	-29.7262	703.25	-1.354	270.2955	10.8377	108.375	-11.4825	354.4811	-0.0592	0.0182	-0.0073	-0.0462	0.0165	0.9585
49.7724	85.3945	673.1501	59.8234	-233.2692	-23.2925	660.9784	-13.852	327.1052	5.933	130.6371	0.41273	429.6049	-0.0592	0.0182	-0.0073	-0.0462	0.0165	0.9585
49.784	85.5273	623.391	52.7626	-215.8983	-16.5058	609.3918	-25.9904	374.7601	-0.76775	149.1078	14.3718	492.4726	-0.0592	0.0182	-0.0073	-0.0462	0.0165	0.9585
49.7956	83.3789	564.3595	44.9462	-195.406	-9.9506	549.4245	-36.4167	412.7789	-8.2133	163.6441	28.4361	542.2242	-0.0592	0.0182	-0.0073	-0.0462	0.0165	0.9585
49.8071	78.6041	497.8293	36.9202	-172.3632	-4.2492	482.8807	-44.697	443.4376	-15.3898	175.1974	41.1526	581.7475	-0.0592	0.0182	-0.0073	-0.0462	0.0165	0.9585
49.8187	71.1196	426.4748	29.1625	-147.6604	0.14354	412.375	-50.9498	470.0538	-21.651	185.1364	51.7331	615.3903	-0.0592	0.0182	-0.0073	-0.0462	0.0165	0.9585
49.8303	61.2222	353.6973	22.0912	-122.4535	2.9645	341.1541	-55.5335	495.8949	-26.5364	194.7865	59.7914	647.4058	-0.0592	0.0182	-0.0073	-0.0462	0.0165	0.9585
49.8419	49.6195	283.2443	15.9621	-98.0396	4.2534	272.7373	-58.7496	523.3118	-30.1587	205.0767	65.6179	680.8204	-0.0592	0.0182	-0.0073	-0.0462	0.0165	0.9585
49.8534	37.4099	218.6254	10.9539	-75.639	4.2609	210.3399	-60.8678	553.5492	-32.9717	216.4619	69.93	717.2328	-0.0592	0.0182	-0.0073	-0.0462	0.0165	0.9585
49.865	25.771	162.411	7.093	-56.1487	3.4121	156.2824	-62.0636	586.6095	-35.7013	228.8828	73.7172	756.6645	-0.0592	0.0182	-0.0073	-0.0462	0.0165	0.9585
49.8766	15.6393	115.8264	4.3226	-39.9995	2.1157	111.5877	-62.5219	621.2179	-38.9353	241.794	77.7848	797.5628	-0.0592	0.0182	-0.0073	-0.0462	0.0165	0.9585
49.8881	7.4557	78.9002	2.4885	-27.2033	0.69242	76.2054	-62.4033	655.3529	-42.9619	254.3854	82.5459	837.4357	-0.0592	0.0182	-0.0073	-0.0462	0.0165	0.9585
49.8997	1.3669	50.7782	1.3973	-17.4663	-0.62341	49.2798	-61.8985	687.0214	-47.6297	265.8979	87.883	873.8426	-0.0592	0.0182	-0.0073	-0.0462	0.0165	0.9585
49.9113	-2.7181	30.2144	0.78871	-10.3555	-1.6236	29.6296	-61.0923	714.7817	-52.4851	275.8172	93.2776	905.0242	-0.0592	0.0182	-0.0073	-0.0462	0.0165	0.9585
49.9229	-4.9453	15.8392	0.45142	-5.397	-2.1732	15.9245	-60.0277	737.7707	-57.0054	283.86	98.1109	929.964	-0.0592	0.0182	-0.0073	-0.0462	0.0165	0.9585
49.9344	-5.583	6.3751	0.22768	-2.1467	-2.2303	6.9329	-58.7039	755.4517	-60.8336	289.869	101.9382	948.0504	-0.0592	0.0182	-0.0073	-0.0462	0.0165	0.9585
49.946	-5.1024	0.71387	0.064613	-0.21707	-1.9258	1.5455	-57.1315	767.5959	-63.7694	293.7908	104.518	959.0632	-0.0592	0.0182	-0.0073	-0.0462	0.0165	0.9585
49.9576	-4.1129	-2.106	-0.040391	0.73189	-1.4762	-1.1444	-55.2971	774.2659	-65.7839	295.6726	105.8198	963.145	-0.0592	0.0182	-0.0073	-0.0462	0.0165	0.9585
49.9691	-2.9467	-3.0125	-0.081044	1.0213	-1.0206	-2.0476	-53.257	775.857	-66.9593	295.6792	105.973	960.8555	-0.0592	0.0182	-0.0073	-0.0462	0.0165	0.9585
49.9807	-1.8871	-2.7673	-0.079663	0.91671	-0.63837	-1.8541	-51.0456	773.2004	-67.4171	294.1342	105.151	953.2416	-0.0592	0.0182	-0.0073	-0.0462	0.0165	0.9585
49.9923	-1.0038	-1.9539	-0.041808	0.61806	-0.35897	-1.1546	-48.7238	767.5173	-67.2877	291.5062	103.5461	941.8151	-0.0592	0.0182	-0.0073	-0.0462	0.0165	0.9585
50.0039	-0.37167	-0.93386	0.0037899	0.25177	-0.1771	-0.26525	-46.3196	760.1897	-66.6898	288.3223	101.327	928.2467	-0.0592	0.0182	-0.0073	-0.0462	0.0165	0.9585
50.0154	0.060343	0.040453	0.050776	-0.098777	-0.070404	0.55654	-43.86	752.523	-65.7326	285.0761	98.644	914.0954	-0.0592	0.0182	-0.0073	-0.0462	0.0165	0.9585
50.027	0.29521	0.87876	0.087329	-0.39962	-0.018808	1.2809	-41.3573	745.5693	-64.5029	282.1629	95.6114	900.6043	-0.0592	0.0182	-0.0073	-0.0462	0.0165	0.9585
50.0386	0.42403	1.5186	0.11161	-0.63438	0.004838	1.8482	-38.8254	740.1233	-63.0793	279.869	92.3325	888.7044	-0.0592	0.0182	-0.0073	-0.0462	0.0165	0.9585
50.0501	0.44885	1.9937	0.12221	-0.81311	0.0050421	2.3246	-36.2765	736.6497	-61.5556	278.3492	88.9267	878.9441	-0.0592	0.0182	-0.0073	-0.0462	0.0165	0.9585
50.0617	0.4462	2.3153	0.11357	-0.94018	0.0099479	2.6962	-33.7204	735.2633	-60.0508	277.6205	85.5388	871.4697	-0.0592	0.0182	-0.0073	-0.0462	0.0165	0.9585
50.0733	0.39221	2.5538	0.092303	-1.0311	0.01046	3.0393	-31.1295	735.7893	-58.6968	277.5867	82.3135	866.0569	-0.0592	0.0182	-0.0073	-0.0462	0.0165	0.9585
50.0849	0.32948	2.734	0.056755	-1.0927	0.019068	3.3207	-28.4604	737.8163	-57.6143	278.0682	79.3679	862.2063	-0.0592	0.0182	-0.0073	-0.0462	0.0165	0.9585
50.0964	0.22394	2.8816	0.018324	-1.1298	0.016029	3.569	-25.632	740.8398	-56.8644	278.8586	76.732	859.3052	-0.0592	0.0182	-0.0073	-0.0462	0.0165	0.9585
50.108	0.099155	2.9564	-0.011886	-1.1328	-0.0053261	3.6967	-22.5496	744.299	-56.454	279.7447	74.3728	856.6741	-0.0592	0.0182	-0.0073	-0.0462	0.0165	0.9585
50.1196	-0.087502	2.9113	-0.02928	-1.0893	-0.064067	3.6767	-19.1328	747.6477	-56.314	280.5334	72.189	853.688	-0.0592	0.0182	-0.0073	-0.0462	0.0165	0.9585
50.1311	-0.30396	2.6458	-0.025283	-0.97266	-0.16097	3.3762	-15.3396	750.3952	-56.3526	281.0648	70.0714	849.8265	-0.0592	0.0182	-0.0073	-0.0462	0.0165	0.9585
50.1427	-0.57295	2.0886	-0.0015172	-0.7526	-0.30159	2.7051	-11.1803	752.1293	-56.4538	281.2192	67.9012	844.692	-0.0592	0.0182	-0.0073	-0.0462	0.0165	0.9585
50.1543	-0.84133	1.1398	0.043218	-0.38959	-0.47004	1.4973	-6.6851	752.5952	-56.5109	280.9334	65.5794	838.0762	-0.0592	0.0182	-0.0073	-0.0462	0.0165	0.9585
50.1659	-1.096	-0.25632	0.092203	0.14416	-0.6375	-0.31782	-1.9118	751.7177	-56.4531	280.1999	63.0542	829.9726	-0.0592	0.0182	-0.0073	-0.0462	0.0165	0.9585
50.1774	-1.2414	-2.1471	0.14958	0.86442	-0.76684	-2.8108	3.0569	749.5693	-56.2935	279.0472	60.3646	820.5287	-0.0592	0.0182	-0.0073	-0.0462	0.0165	0.9585
50.189	-1.185	-4.4438	0.18999	1.7395	-0.78877	-5.8446	8.086	746.3293	-56.1394	277.5251	57.6608	810.0027	-0.0592	0.0182	-0.0073	-0.0462	0.0165	0.9585
50.2006	-0.7524	-6.931	0.20284	2.683	-0.6187	-9.1305	12.9959	742.2604	-56.1358	275.7123	55.1499	798.7436	-0.0592	0.0182	-0.0073	-0.0462	0.0165	0.9585
50.2121	0.2367	-9.1198	0.14812	3.5081	-0.1384	-12.0033	17.5646	737.7617	-56.4126	273.7402	53.041	787.2477	-0.0592	0.0182	-0.0073	-0.0462	0.0165	0.9585
50.2237	2.0263	-10.2236	0.013178	3.9077	0.76321	-13.4505	21.6081	733.3218	-57.023	271.7852	51.4603	776.0856	-0.0592	0.0182	-0.0073	-0.0462	0.0165	0.9585
50.2353	4.7955	-9.0174	-0.23273	3.4106	2.1933	-11.8879	25.0279	729.4349	-57.9547	270.0348	50.4413	765.8114	-0.0592	0.0182	-0.0073	-0.0462	0.0165	0.9585
50.2469	8.6766	-3.8771	-0.59793	1.386	4.2139	-5.2258	27.872	726.4576	-59.101	268.6313	49.8772	756.7945	-0.0592	0.0182	-0.0073	-0.0462	0.0165	0.9585
50.2584	13.5791	7.2034	-1.098	-2.9456	6.8062	9.1469	30.3097	724.4416	-60.3256	267.6048	49.5865	749.0851	-0.0592	0.0182	-0.0073	-0.0462	0.0165	0.9585
50.27	19.1133	26.3741	-1.7109	-10.4231	9.7865	34.0305	32.6044	723.0203	-61.4509	266.8301	49.3076	742.292	-0.0592	0.0182	-0.0073	-0.0462	0.0165	0.9585
